<?xml version="1.0" encoding="utf-8"?>
<!-- Generator: Adobe Illustrator 16.0.0, SVG Export Plug-In . SVG Version: 6.00 Build 0)  -->
<!DOCTYPE svg PUBLIC "-//W3C//DTD SVG 1.1//EN" "http://www.w3.org/Graphics/SVG/1.1/DTD/svg11.dtd">
<svg version="1.1" id="Layer_1" xmlns="http://www.w3.org/2000/svg" xmlns:xlink="http://www.w3.org/1999/xlink" x="0px" y="0px"
	 width="30px" height="30px" viewBox="0 0 30 30" enable-background="new 0 0 30 30" xml:space="preserve">
<g>
	<path fill="none" d="M15,0.819c-6.18,0-11.19,5.01-11.19,11.19c0,6.181,5.01,11.19,11.19,11.19c6.18,0,11.189-5.01,11.189-11.19
		C26.189,5.829,21.18,0.819,15,0.819z M20.703,19.877c0,0.23-0.188,0.416-0.416,0.416h-2.514c-0.229,0-0.416-0.186-0.416-0.416
		v-6.574c0-0.23-0.187-0.416-0.416-0.416h-3.884c-0.23,0-0.416,0.186-0.416,0.416v6.574c0,0.23-0.186,0.416-0.416,0.416H9.713
		c-0.229,0-0.416-0.186-0.416-0.416V3.888c0-0.23,0.186-0.416,0.416-0.416h2.513c0.229,0,0.416,0.186,0.416,0.416v6.18
		c0,0.229,0.186,0.416,0.416,0.416h3.885c0.229,0,0.416-0.187,0.416-0.416v-6.18c0-0.23,0.187-0.416,0.416-0.416h2.513
		c0.229,0,0.416,0.186,0.416,0.416L20.703,19.877L20.703,19.877z"/>
	<path fill="#D61651" d="M15,0C8.425,0,3.095,5.33,3.095,11.905C3.095,23.145,15,30,15,30s11.904-6.797,11.904-18.095
		C26.904,5.33,21.574,0,15,0z M15,23.199c-6.18,0-11.19-5.01-11.19-11.19c0-6.18,5.01-11.19,11.19-11.19
		c6.18,0,11.189,5.01,11.189,11.19C26.189,18.189,21.18,23.199,15,23.199z"/>
	<circle fill="#FFFFFF" cx="15" cy="12.009" r="11.19"/>
	<path fill="#D61651" d="M20.286,3.599h-2.513c-0.229,0-0.416,0.186-0.416,0.416v6.18c0,0.229-0.188,0.416-0.416,0.416h-3.885
		c-0.229,0-0.416-0.187-0.416-0.416v-6.18c0-0.23-0.187-0.416-0.416-0.416H9.712c-0.229,0-0.416,0.186-0.416,0.416v15.989
		c0,0.23,0.186,0.416,0.416,0.416h2.512c0.23,0,0.416-0.186,0.416-0.416V13.43c0-0.23,0.186-0.416,0.416-0.416h3.885
		c0.229,0,0.414,0.186,0.414,0.416v6.574c0,0.23,0.188,0.416,0.416,0.416h2.515c0.229,0,0.416-0.186,0.416-0.416V4.015
		C20.702,3.785,20.516,3.599,20.286,3.599z"/>
</g>
</svg>
