<?xml version="1.0" encoding="utf-8"?>
<!-- Generator: Adobe Illustrator 16.0.0, SVG Export Plug-In . SVG Version: 6.00 Build 0)  -->
<!DOCTYPE svg PUBLIC "-//W3C//DTD SVG 1.1//EN" "http://www.w3.org/Graphics/SVG/1.1/DTD/svg11.dtd">
<svg version="1.1" xmlns="http://www.w3.org/2000/svg" xmlns:xlink="http://www.w3.org/1999/xlink" x="0px" y="0px" width="30px"
	 height="30px" viewBox="0 0 30 30" enable-background="new 0 0 30 30" xml:space="preserve">
<g id="Layer_1">
	<circle fill="#FFFFFF" stroke="#000000" stroke-miterlimit="10" cx="15" cy="15" r="14.37"/>
</g>
<g id="Layer_2">
	<g>
		<g>
			<path d="M6.161,24.546C12.29,18.418,18.418,12.29,24.546,6.161c0.456-0.457-0.251-1.164-0.707-0.707
				c-6.128,6.128-12.256,12.257-18.385,18.385C4.998,24.295,5.705,25.002,6.161,24.546L6.161,24.546z"/>
		</g>
	</g>
</g>
<g id="Layer_2_copy">
	<g>
		<g>
			<path d="M24.546,23.839C18.418,17.711,12.29,11.583,6.161,5.454c-0.457-0.457-1.164,0.25-0.707,0.707
				c6.128,6.128,12.257,12.257,18.385,18.385C24.295,25.002,25.002,24.295,24.546,23.839L24.546,23.839z"/>
		</g>
	</g>
</g>
</svg>
